# xmcd
#
# Track frame offsets:
#	150
#	14215
#	24972
#	36755
#	49040
#	61365
#	74300
#	85997
#	100342
#	116120
#	128295
#	144822
#
# Disc length: 2214 seconds
#
# Revision: 0
# Processed by: cddbd v1.4PL0 Copyright (c) Steve Scherf et al.
# Submitted via: EasyCDDAExtractor 4.6.9.1
#
DISCID=9c08a40c
DTITLE=Jesse Brock - Kickin' Grass
DYEAR=2002
DGENRE=Bluegrass
TTITLE0=Kickin' Grass [inst]
TTITLE1=Georgia Stomp [inst]
TTITLE2=You're The Best Of All The Leading Brands
TTITLE3=Roadrunner [inst]
TTITLE4=She's No Angel
TTITLE5=Lil' Ben [inst]
TTITLE6=Red Rooster [inst]
TTITLE7=The Girl In The Blue Velvet Band
TTITLE8=Home Sweet Home [inst]
TTITLE9=Mother Knows Best
TTITLE10=New Camptown Races [inst]
TTITLE11=Maury River Blues [inst]
EXTD=
EXTT0=
EXTT1=
EXTT2=
EXTT3=
EXTT4=
EXTT5=
EXTT6=
EXTT7=
EXTT8=
EXTT9=
EXTT10=
EXTT11=
PLAYORDER=
